<?xml version="1.0" encoding="UTF-8" standalone="no"?>
<!-- Created with Inkscape (http://www.inkscape.org/) -->

<svg
   width="800"
   height="135"
   viewBox="0 0 211.66666 35.718753"
   version="1.1"
   id="svg5"
   inkscape:version="1.1.1 (3bf5ae0d25, 2021-09-20)"
   sodipodi:docname="big-logo.svg"
   xmlns:inkscape="http://www.inkscape.org/namespaces/inkscape"
   xmlns:sodipodi="http://sodipodi.sourceforge.net/DTD/sodipodi-0.dtd"
   xmlns="http://www.w3.org/2000/svg"
   xmlns:svg="http://www.w3.org/2000/svg">
  <sodipodi:namedview
     id="namedview7"
     pagecolor="#282828"
     bordercolor="#666666"
     borderopacity="1.0"
     inkscape:pageshadow="2"
     inkscape:pageopacity="0"
     inkscape:pagecheckerboard="0"
     inkscape:document-units="px"
     showgrid="false"
     units="px"
     width="793.70081px"
     inkscape:snap-bbox="false"
     inkscape:snap-smooth-nodes="false"
     inkscape:snap-object-midpoints="false"
     inkscape:snap-center="false"
     inkscape:snap-midpoints="false"
     inkscape:snap-intersection-paths="false"
     inkscape:object-paths="true"
     inkscape:zoom="0.70710678"
     inkscape:cx="369.81684"
     inkscape:cy="11.313708"
     inkscape:window-width="1912"
     inkscape:window-height="1042"
     inkscape:window-x="0"
     inkscape:window-y="30"
     inkscape:window-maximized="1"
     inkscape:current-layer="layer2"
     inkscape:snap-grids="false"
     showguides="false"
     inkscape:guide-bbox="true"
     showborder="false"
     inkscape:snap-others="false"
     inkscape:snap-nodes="false"
     inkscape:object-nodes="true"
     inkscape:snap-to-guides="false">
    <sodipodi:guide
       position="-1.1013141,79.060471"
       orientation="0,-1"
       id="guide6729" />
    <sodipodi:guide
       position="0.38730459,80.473978"
       orientation="1,0"
       id="guide874" />
    <sodipodi:guide
       position="211.11264,81.129233"
       orientation="1,0"
       id="guide876" />
  </sodipodi:namedview>
  <defs
     id="defs2" />
  <g
     id="g5825"
     inkscape:label="Літери"
     inkscape:groupmode="layer"
     style="display:inline">
    <g
       id="g7364"
       inkscape:label="И"
       style="fill:#458588;fill-opacity:1"
       transform="matrix(0.23842658,0,0,0.23842658,241.30596,16.091733)">
      <path
         id="path7360"
         style="fill:#458588;fill-opacity:1;fill-rule:evenodd;stroke-width:11.7883;stroke-linejoin:round;stroke-miterlimit:17.2;paint-order:markers fill stroke"
         inkscape:label="Лінія"
         d="m -156.21489,50.271123 h -26.35925 l 0.56111,-116.444953 h -7.93701 c 0.029,3.59227 -0.61261,113.125243 -0.53721,116.674703 0.1311,4.19079 3.49904,7.55684 7.68991,7.68557 29.13108,0.043 -2.58686,0.0216 26.58249,0.0216 z m 0,10.58339 h -26.35709 c -5.89159,-4.8e-4 -10.58332,-4.69179 -10.58338,-10.58339 -0.004,-3.52289 0.55911,-112.918133 0.55911,-116.444953 h -7.93701 l -0.56111,116.674703 h 0.007 c 0.12379,10.00153 8.28838,18.16282 18.29064,18.28413 29.1642,0.0132 -2.59357,0.007 26.5824,0.007 z m 0,10.58338 h -26.35925 c -11.73662,-6.7e-4 -21.16475,-9.43015 -21.16461,-21.16677 l 0.56111,-116.444953 h -7.93917 l -0.56111,116.674703 h 0.007 c 0.12405,15.84612 13.02711,28.74801 28.87402,28.86969 30.0128,0.008 -0.11638,0.004 26.58235,0.004 z"
         sodipodi:nodetypes="cccccccccccccccccccccccccccc" />
      <path
         id="path7362"
         style="fill:#458588;fill-opacity:1;fill-rule:evenodd;stroke-width:15.1992;stroke-linejoin:round;stroke-miterlimit:17.2;paint-order:markers fill stroke"
         d="m -156.10416,79.375 h 7.9375 V -66.145833 h -7.9375 z m 10.58333,0 h 7.9375 V -66.145833 h -7.9375 z m 10.58333,0 H -127 V -66.145833 h -7.9375 z"
         inkscape:label="Лінія" />
    </g>
    <g
       id="g9141"
       inkscape:label="Х"
       style="fill:#458588;fill-opacity:1"
       transform="matrix(0.23842658,0,0,0.23842658,96.274524,16.091733)">
      <path
         id="path7482"
         style="display:inline;fill:#458588;fill-opacity:1;fill-rule:evenodd;stroke-width:15.1992;stroke-linejoin:round;stroke-miterlimit:17.2;paint-order:markers fill stroke"
         d="m 280.45833,79.374999 h 7.9375 l 74.08334,-145.520831 h -7.9375 z m 10.58333,0 h 7.9375 L 373.0625,-66.145832 h -7.9375 z m 10.58333,0 h 7.9375 l 74.08334,-145.520831 h -7.9375 z"
         inkscape:label="Лінія"
         sodipodi:nodetypes="ccccccccccccccc" />
      <path
         id="path7486"
         style="display:inline;fill:#458588;fill-opacity:1;fill-rule:evenodd;stroke-width:57.4458;stroke-linejoin:round;stroke-miterlimit:17.2;paint-order:markers fill stroke"
         inkscape:label="Лінія"
         d="M 1060,-250 1200,25 1215,-4.4648438 1090,-250 Z m 40,0 120,235.714844 L 1235,-43.75 1130,-250 Z m 40,0 100,196.427734 15,-29.46289 L 1170,-250 Z M 1310,25 1295,54.464844 1420,300 h 30 z M 1290,64.285156 1275,93.75 1380,300 h 30 z m -20,39.287114 -15,29.46289 L 1340,300 h 30 z"
         transform="scale(0.26458333)" />
    </g>
    <g
       id="g9137"
       inkscape:label="Я"
       style="display:inline;fill:#458588;fill-opacity:1"
       transform="matrix(0.23842658,0,0,0.23842658,96.274524,16.091733)">
      <path
         id="path5353"
         style="display:inline;fill:#458588;fill-opacity:1;fill-rule:evenodd;stroke-width:3.53707;stroke-linejoin:round;stroke-miterlimit:17.2;paint-order:markers fill stroke"
         inkscape:label="Лінія"
         d="m 571.30273,1.2128906 c -21.02589,5.065e-4 -38.14648,17.1224344 -38.14648,38.1484374 0,21.026004 17.12059,38.14793 38.14648,38.148438 h 9.53677 v -7.152344 c -2.92345,-0.0021 -6.63779,0.0038 -9.56112,-0.0018 -17.16022,-5e-4 -30.96979,-13.83395 -30.96979,-30.994298 0,-17.160349 13.83392,-30.9955917 30.99414,-30.9960936 h 9.53711 V 1.2128906 Z m 0,9.5371094 c -15.75871,4.77e-4 -28.60937,12.852492 -28.60937,28.611328 0,15.758837 12.85066,28.610821 28.60937,28.611328 h 9.53677 v -7.152344 h -9.53677 c -11.89305,-5.01e-4 -21.45703,-9.565804 -21.45703,-21.458984 0,-11.893179 9.56398,-21.458481 21.45703,-21.458984 h 9.53711 V 10.75 Z m 0,9.537109 c -10.49154,4.77e-4 -19.07421,8.582554 -19.07421,19.074219 0,10.491667 8.58267,19.073708 19.07421,19.074219 h 9.53677 v -7.152344 h -9.53677 c -6.62589,-4.77e-4 -11.91992,-5.295865 -11.91992,-11.921875 0,-6.626009 5.29403,-11.921375 11.91992,-11.921875 h 9.53711 v -7.152344 z"
         transform="matrix(1.1097057,0,0,1.1097057,-403.79107,-67.491355)"
         sodipodi:nodetypes="csccccscccccsccccscccccsccccscccc" />
      <path
         id="path5347"
         style="display:inline;fill:#458588;fill-opacity:1;fill-rule:evenodd;stroke-width:15.1992;stroke-linejoin:round;stroke-miterlimit:17.2;paint-order:markers fill stroke"
         d="m 240.77084,79.375 h 7.9375 V -66.145832 h -7.9375 z m 10.58333,0 h 7.9375 V -66.145832 h -7.9375 z m 10.58333,0 h 7.9375 V -66.145832 h -7.9375 z"
         inkscape:label="Лінія" />
      <path
         id="path5359"
         style="display:inline;fill:#458588;fill-opacity:1;fill-rule:evenodd;stroke-width:10.2473;stroke-linejoin:round;stroke-miterlimit:17.2;paint-order:markers fill stroke"
         d="m 187.85417,79.375 h 7.9375 l 23.81251,-66.145832 h -7.9375 z m 10.58333,0 h 7.9375 l 23.81251,-66.145833 h -7.9375 z m 10.58333,0 h 7.9375 l 23.81251,-66.145832 h -7.9375 z"
         inkscape:label="Лінія"
         sodipodi:nodetypes="ccccccccccccccc" />
    </g>
    <g
       id="g9130"
       inkscape:label="Л"
       style="fill:#458588;fill-opacity:1"
       transform="matrix(0.23842658,0,0,0.23842658,96.274524,16.091733)">
      <path
         id="path7457"
         style="fill:#458588;fill-opacity:1;fill-rule:evenodd;stroke-width:10.6229;stroke-linejoin:round;stroke-miterlimit:17.2;paint-order:markers fill stroke"
         inkscape:label="Лінія"
         d="m 444.9375,27.439453 v 78.681637 h -9.53711 v 7.15235 c 3.23714,-0.0261 6.54558,0.0464 9.74414,-0.0215 3.77649,-0.11814 6.80977,-3.15312 6.92578,-6.92968 0.0387,-26.25118 0.0195,-52.597144 0.0195,-78.882807 z m 9.53711,0 v 78.679687 c -4.3e-4,5.30915 -4.22796,9.53705 -9.53711,9.53711 -3.17462,0.004 -6.35895,0.002 -9.53711,0.002 v 7.15235 h 9.74414 v -0.006 c 9.01278,-0.11155 16.36724,-7.46899 16.47656,-16.48242 0.0119,-26.281028 0.006,-52.591101 0.006,-78.882727 z m 9.53711,0 v 78.681637 c -6.1e-4,10.57633 -8.49789,19.0724 -19.07422,19.07227 h -9.53711 v 7.1543 h 9.74414 v -0.006 c 14.27957,-0.11179 25.90598,-11.73925 26.01563,-26.01953 0.007,-27.045726 0.004,-54.823394 0.004,-78.882677 z"
         transform="matrix(1.1097057,0,0,1.1097057,-403.79107,-67.491355)"
         sodipodi:nodetypes="cccccccccccccccccccccccccccc" />
      <path
         id="path7459"
         style="fill:#458588;fill-opacity:1;fill-rule:evenodd;stroke-width:11.5934;stroke-linejoin:round;stroke-miterlimit:17.2;paint-order:markers fill stroke"
         d="m 174.625,-37.04167 v -7.937511 H 89.958337 v 7.937511 z m 0,-10.583331 v -7.9375 H 89.958337 v 7.9375 z m 0,-10.583332 v -7.937498 H 89.958337 v 7.937499 z"
         inkscape:label="Лінія" />
      <path
         id="path7461"
         style="fill:#458588;fill-opacity:1;fill-rule:evenodd;stroke-width:13.5946;stroke-linejoin:round;stroke-miterlimit:17.2;paint-order:markers fill stroke"
         d="m 145.52084,79.374995 h 7.9375 V -37.04167 h -7.9375 z m 10.58332,0 h 7.9375 V -37.04167 h -7.9375 z m 10.58333,0 h 7.9375 V -37.04167 h -7.9375 z"
         inkscape:label="Лінія" />
    </g>
    <g
       id="g9123"
       style="display:inline;fill:#458588;fill-opacity:1"
       inkscape:label="О"
       transform="matrix(0.23842658,0,0,0.23842658,96.274524,16.091733)">
      <path
         id="path5330"
         style="color:#000000;opacity:1;fill:#458588;fill-opacity:1;fill-rule:evenodd;stroke-width:0.90114;stroke-linejoin:round;stroke-miterlimit:17.2;-inkscape-stroke:none;paint-order:markers fill stroke"
         inkscape:label="Половина"
         d="m 390.09766,1.3046875 c -20.93102,0 -37.98444,16.9697245 -38.13868,37.8652345 -0.029,19.332329 -0.12162,38.899981 -0.0766,55.452068 0.18685,20.86763 17.30651,37.72371 38.21723,37.72371 20.88057,0 37.89968,-16.8867 38.13477,-37.712888 0.0289,-19.454564 0.0153,-39.092921 0.004,-55.79174 C 428.08825,17.941966 411.03129,1.3046875 390.09766,1.3046875 Z m 0,7.1542969 c 17.16035,0 30.99559,13.8339146 30.99609,30.9941406 v 54.746094 c -5e-4,17.160221 -13.83379,30.994141 -30.99414,30.994141 -17.16035,0 -30.99559,-13.83392 -30.99609,-30.994141 V 39.453125 c 5e-4,-17.160226 13.83378,-30.9941406 30.99414,-30.9941406 z m 0,2.3847656 c -15.66388,0 -28.44943,12.697596 -28.60352,28.326172 -0.0113,19.00614 -0.008,38.506174 0.002,55.466452 0.18655,15.600726 12.95993,28.172216 28.60352,28.172216 15.61345,0 28.36501,-12.61643 28.59961,-28.175777 -0.0779,-19.333169 0.092,-39.008077 0.002,-55.569411 C 418.5513,23.431239 405.76415,10.84375 390.09766,10.84375 Z m 0,7.152344 c 11.89318,0 21.45848,9.563978 21.45898,21.457031 v 54.820313 c -0.0405,11.858382 -9.58876,21.382812 -21.45703,21.382812 -11.89318,0 -21.45848,-9.56398 -21.45899,-21.457031 V 39.453125 c 5.1e-4,-11.893054 9.56386,-21.457031 21.45704,-21.457031 z m 0,2.382812 c -10.39678,0 -18.91264,8.429108 -19.06641,18.791016 -0.024,19.340442 -0.0784,38.912476 -0.0357,55.477072 0.18641,10.333816 8.72784,18.626446 19.1041,18.626446 10.34609,0 18.82844,-8.34816 19.0625,-18.640628 0.004,-19.323519 0.0252,-38.989075 0.01,-55.542232 C 409.0224,28.725108 400.49668,20.378906 390.0973,20.378906 Z m 0,7.152344 c 6.62601,0 11.92138,5.295983 11.92187,11.921875 v 54.746094 c -4.8e-4,6.625891 -5.29391,11.921871 -11.91992,11.921871 -6.62601,0 -11.92138,-5.29598 -11.92188,-11.921871 V 39.453125 c 4.8e-4,-6.625892 5.29392,-11.921875 11.91993,-11.921875 z"
         transform="matrix(1.1097057,0,0,1.1097057,-403.79107,-67.491355)"
         sodipodi:nodetypes="sccsccssccsccssccsccssccsccssccsccssccsccsc" />
    </g>
    <g
       id="g9117"
       inkscape:label="К"
       style="display:inline;fill:#458588;fill-opacity:1"
       transform="matrix(0.23842658,0,0,0.23842658,96.274524,16.091733)">
      <path
         id="path6322"
         style="fill:#458588;fill-opacity:1;fill-rule:evenodd;stroke-width:15.1992;stroke-linejoin:round;stroke-miterlimit:17.2;paint-order:markers fill stroke"
         d="m -50.270832,79.375 h 7.9375 L -68.791666,5.2916669 -42.333332,-66.145833 h -7.9375 L -76.729166,5.2916667 Z m 10.58332,0 h 7.9375 L -58.208333,5.2916669 -31.750012,-66.145833 h -7.9375 l -26.45832,71.4374999 z m 10.58333,0 h 7.9375 L -47.624999,5.2916669 -21.166682,-66.145833 h -7.9375 L -55.562499,5.2916669 Z"
         inkscape:label="Лінія"
         sodipodi:nodetypes="ccccccccccccccccccccc" />
      <path
         id="path6318"
         style="fill:#458588;fill-opacity:1;fill-rule:evenodd;stroke-width:15.1992;stroke-linejoin:round;stroke-miterlimit:17.2;paint-order:markers fill stroke"
         d="m -105.83333,79.374999 h 7.937498 V -66.145833 h -7.937498 z m 10.583328,0 h 7.9375 V -66.145833 h -7.9375 z m 10.58333,0 h 7.9375 V -66.145833 h -7.9375 z"
         inkscape:label="Лінія" />
    </g>
    <g
       id="g9109"
       inkscape:label="И"
       style="fill:#458588;fill-opacity:1"
       transform="matrix(0.23842658,0,0,0.23842658,96.274524,16.091733)">
      <path
         id="path6600"
         style="fill:#458588;fill-opacity:1;fill-rule:evenodd;stroke-width:11.7883;stroke-linejoin:round;stroke-miterlimit:17.2;paint-order:markers fill stroke"
         inkscape:label="Лінія"
         d="m -156.21489,50.271123 h -26.35925 l 0.56111,-116.444953 h -7.93701 c 0.029,3.59227 -0.61261,113.125243 -0.53721,116.674703 0.1311,4.19079 3.49904,7.55684 7.68991,7.68557 29.13108,0.043 -2.58686,0.0216 26.58249,0.0216 z m 0,10.58339 h -26.35709 c -5.89159,-4.8e-4 -10.58332,-4.69179 -10.58338,-10.58339 -0.004,-3.52289 0.55911,-112.918133 0.55911,-116.444953 h -7.93701 l -0.56111,116.674703 h 0.007 c 0.12379,10.00153 8.28838,18.16282 18.29064,18.28413 29.1642,0.0132 -2.59357,0.007 26.5824,0.007 z m 0,10.58338 h -26.35925 c -11.73662,-6.7e-4 -21.16475,-9.43015 -21.16461,-21.16677 l 0.56111,-116.444953 h -7.93917 l -0.56111,116.674703 h 0.007 c 0.12405,15.84612 13.02711,28.74801 28.87402,28.86969 30.0128,0.008 -0.11638,0.004 26.58235,0.004 z"
         sodipodi:nodetypes="cccccccccccccccccccccccccccc" />
      <path
         id="path6149"
         style="fill:#458588;fill-opacity:1;fill-rule:evenodd;stroke-width:15.1992;stroke-linejoin:round;stroke-miterlimit:17.2;paint-order:markers fill stroke"
         d="m -156.10416,79.375 h 7.9375 V -66.145833 h -7.9375 z m 10.58333,0 h 7.9375 V -66.145833 h -7.9375 z m 10.58333,0 H -127 V -66.145833 h -7.9375 z"
         inkscape:label="Лінія" />
    </g>
    <g
       id="g9097"
       inkscape:label="П"
       style="display:inline;fill:#458588;fill-opacity:1"
       transform="matrix(0.23842658,0,0,0.23842658,96.274524,16.091733)">
      <path
         id="path5817"
         style="display:inline;fill:#458588;fill-opacity:1;fill-rule:evenodd;stroke-width:13.5946;stroke-linejoin:round;stroke-miterlimit:17.2;paint-order:markers fill stroke"
         d="m -402.16665,79.374999 h 7.9375 V -37.041666 h -7.9375 z m 10.58333,0 h 7.9375 V -37.041666 h -7.9375 z m 10.58333,0 h 7.9375 V -37.041666 h -7.9375 z"
         inkscape:label="Лінія" />
      <path
         id="path5821"
         style="display:inline;fill:#458588;fill-opacity:1;fill-rule:evenodd;stroke-width:11.5934;stroke-linejoin:round;stroke-miterlimit:17.2;paint-order:markers fill stroke"
         d="m -317.49999,-37.041666 v -7.937511 h -84.66666 v 7.937511 z m 0,-10.583331 v -7.9375 h -84.66666 v 7.9375 z m 0,-10.583331 v -7.937499 h -84.66666 v 7.937499 z"
         inkscape:label="Лінія" />
      <path
         id="path5983"
         style="display:inline;fill:#458588;fill-opacity:1;fill-rule:evenodd;stroke-width:13.5946;stroke-linejoin:round;stroke-miterlimit:17.2;paint-order:markers fill stroke"
         d="m -346.60415,79.375 h 7.9375 V -37.041666 h -7.9375 z m 10.58332,0 h 7.9375 V -37.041666 h -7.9375 z m 10.58333,0 H -317.5 V -37.041666 h -7.9375 z"
         inkscape:label="Лінія" />
    </g>
    <g
       id="g9103"
       inkscape:label="Р"
       style="fill:#458588;fill-opacity:1"
       transform="matrix(0.23842658,0,0,0.23842658,96.274524,16.091733)">
      <path
         id="path5319"
         style="fill:#458588;fill-opacity:1;fill-rule:evenodd;stroke-width:15.1992;stroke-linejoin:round;stroke-miterlimit:17.2;paint-order:markers fill stroke"
         d="m -304.27083,79.374999 h 7.9375 V -66.145833 h -7.9375 z m 10.58333,0 h 7.9375 V -66.145833 h -7.9375 z m 10.58333,0 h 7.9375 V -66.145833 h -7.9375 z"
         inkscape:label="Лінія" />
      <path
         id="path5322"
         style="color:#000000;fill:#458588;fill-opacity:1;fill-rule:evenodd;stroke-width:0.90114;stroke-linejoin:round;stroke-miterlimit:17.2;-inkscape-stroke:none;paint-order:markers fill stroke"
         inkscape:label="Половина"
         d="m 115.9082,1.2128906 v 7.1523438 c 3.19312,0.00524 6.38708,-0.00938 9.57976,0.0045 17.16023,5.001e-4 30.95345,13.8312496 30.95345,30.9915986 0,17.160348 -13.83587,30.995593 -30.9961,30.996094 -3.17462,-0.004 -6.35895,-0.002 -9.53711,-0.002 v 7.154297 h 9.53711 c 21.02589,-5.06e-4 38.14844,-17.122435 38.14844,-38.148438 0,-21.026004 -17.12255,-38.1479304 -38.14844,-38.1484378 z m 0,9.5371094 v 7.152344 h 9.53711 c 11.89306,5.01e-4 21.45703,9.565804 21.45703,21.458984 0,11.893179 -9.56397,21.456529 -21.45703,21.457031 h -9.53711 v 7.154297 h 9.53711 c 15.75872,-4.76e-4 28.61133,-12.852492 28.61133,-28.611328 0,-15.758837 -12.85261,-28.610821 -28.61133,-28.611328 z m 0,9.537109 v 7.152344 h 9.53711 c 6.62589,4.77e-4 11.92188,5.295864 11.92188,11.921875 0,6.626009 -5.29599,11.921374 -11.92188,11.921875 -3.17462,-0.004 -6.35895,-0.002 -9.53711,-0.002 V 58.4355 h 9.53711 c 10.49155,-4.77e-4 19.07422,-8.582554 19.07422,-19.074219 0,-10.491666 -8.58267,-19.073708 -19.07422,-19.074219 z"
         transform="matrix(1.1097057,0,0,1.1097057,-403.79107,-67.491355)"
         sodipodi:nodetypes="cccsccccscccccsccccscccccsccccscc" />
    </g>
  </g>
  <g
     inkscape:groupmode="layer"
     id="layer2"
     inkscape:label="Тіні"
     style="display:inline">
    <path
       id="path11441"
       style="fill:#1c5356;fill-opacity:1;fill-rule:evenodd;stroke-width:2.45;stroke-linejoin:round;stroke-miterlimit:17.2;paint-order:markers fill stroke"
       inkscape:label="1"
       d="m 146.66645,19.45163 -0.47772,1.32972 c 0.5171,0.293977 1.05707,0.541475 1.62546,0.7418 l 0.51251,-1.423618 c -0.57722,-0.169144 -1.13046,-0.383446 -1.66025,-0.647902 z m 2.23484,0.801695 -0.52197,1.452092 c 0.57275,0.164385 1.16072,0.280461 1.76977,0.341215 l 0.55787,-1.548774 c -0.61902,-0.02739 -1.22006,-0.110214 -1.80567,-0.244533 z m 2.43211,0.255875 -0.56823,1.578411 c 0.13037,0.005 0.26736,0.01107 0.39893,0.01107 l 1.48924,9.87e-4 0.58563,-1.592888 z"
       sodipodi:nodetypes="ccccccccccccsccc" />
    <path
       id="path7558"
       style="fill:#1c5356;fill-opacity:1;fill-rule:evenodd;stroke-width:13.6966;stroke-linejoin:round;stroke-miterlimit:17.2;paint-order:markers fill stroke"
       inkscape:label="Лінія"
       d="m 659.73242,34.410156 -3.57617,7.025391 3.36523,6.611328 3.57618,-7.025391 z m -4.76953,9.367188 -3.57617,7.02539 3.36523,6.611328 0.0742,-0.144531 3.50195,-6.880859 z m -4.76758,9.365234 -3.57617,7.025391 3.36524,6.611328 0.99609,-1.957031 2.58008,-5.06836 z m 26.01563,13.636719 -3.57617,7.025391 3.36523,6.611328 3.57617,-7.025391 z m -4.76758,9.367187 -1.58789,3.115235 -1.99024,3.910156 3.36719,6.611328 3.57617,-7.025391 z m -4.76953,9.367188 -3.57617,7.02539 3.36523,6.611329 3.57617,-7.025391 z"
       transform="scale(0.26458334)" />
    <path
       id="path6860"
       style="fill:#1c5356;fill-opacity:1;fill-rule:evenodd;stroke-width:0.990809;stroke-miterlimit:17.2;stroke-dasharray:1.98162, 1.98162;paint-order:fill markers stroke"
       d="M 0.38730505,7.2600153 V 8.8475355 H 2.2797222 V 7.2600153 Z m 2.52339295,0 V 8.8475355 H 4.8031151 V 7.2600153 Z m 2.5233953,0 V 8.8475355 H 7.3265104 V 7.2600153 Z"
       sodipodi:nodetypes="ccccccccccccccc" />
    <path
       id="path7043"
       style="fill:#1c5356;fill-opacity:1;fill-rule:evenodd;stroke-width:0.990809;stroke-miterlimit:17.2;stroke-dasharray:1.98162, 1.98162;paint-order:fill markers stroke"
       d="m 30.667378,7.2600547 h 1.587521 V 5.3676379 h -1.587521 z m 0,-2.5233928 h 1.587521 v -1.892417 h -1.587521 z m 0,-2.523395 h 1.587521 V 0.32084993 h -1.587521 z"
       sodipodi:nodetypes="ccccccccccccccc" />
    <path
       id="path7045"
       style="fill:#1c5356;fill-opacity:1;fill-rule:evenodd;stroke-width:0.990809;stroke-miterlimit:17.2;stroke-dasharray:1.98162, 1.98162;paint-order:fill markers stroke"
       d="m 30.667378,20.50729 h 1.587521 v -1.892416 h -1.587521 z m 0,-2.523392 h 1.587521 v -1.892417 h -1.587521 z m 0,-2.523395 h 1.587521 v -1.892417 h -1.587521 z"
       sodipodi:nodetypes="ccccccccccccccc" />
    <path
       id="path7047"
       style="fill:#1c5356;fill-opacity:1;fill-rule:evenodd;stroke-width:0.990809;stroke-miterlimit:17.2;stroke-dasharray:1.98162, 1.98162;paint-order:fill markers stroke"
       d="m 57.441355,35.016967 h 1.587521 v -1.892416 h -1.587521 z m 0,-2.523392 h 1.587521 v -1.892417 h -1.587521 z m 0,-2.523395 h 1.587521 v -1.892417 h -1.587521 z"
       sodipodi:nodetypes="ccccccccccccccc" />
    <path
       id="path7049"
       style="fill:#1c5356;fill-opacity:1;fill-rule:evenodd;stroke-width:0.990809;stroke-miterlimit:17.2;stroke-dasharray:1.98162, 1.98162;paint-order:fill markers stroke"
       d="m 152.09302,7.260022 h 1.58752 V 5.367606 h -1.58752 z m 0,-2.523392 h 1.58752 V 2.844213 h -1.58752 z m 0,-2.523395 h 1.58752 V 0.32081803 h -1.58752 z"
       sodipodi:nodetypes="ccccccccccccccc" />
    <path
       id="path7051"
       style="fill:#1c5356;fill-opacity:1;fill-rule:evenodd;stroke-width:0.991421;stroke-miterlimit:17.2;stroke-dasharray:1.98284, 1.98284;paint-order:fill markers stroke"
       d="m 152.09293,20.522069 h 1.58752 v -1.900426 h -1.58752 z m 0,-2.532182 h 1.58752 v -1.894755 h -1.58752 z m 0,-2.526512 h 1.58752 V 13.56862 h -1.58752 z"
       sodipodi:nodetypes="ccccccccccccccc" />
    <path
       id="path7053"
       style="fill:#1c5356;fill-opacity:1;fill-rule:evenodd;stroke-width:0.990809;stroke-miterlimit:17.2;stroke-dasharray:1.98162, 1.98162;paint-order:fill markers stroke"
       d="m 137.90986,8.8475343 v -1.58752 h -1.89241 v 1.58752 z m -2.52339,0 v -1.58752 h -1.89242 v 1.58752 z m -2.5234,0 v -1.58752 h -1.89241 v 1.58752 z"
       sodipodi:nodetypes="ccccccccccccccc" />
    <path
       id="path7055"
       style="fill:#1c5356;fill-opacity:1;fill-rule:evenodd;stroke-width:0.990809;stroke-miterlimit:17.2;stroke-dasharray:1.98162, 1.98162;paint-order:fill markers stroke"
       d="m 124.66222,8.847542 v -1.58752 h -1.89241 v 1.58752 z m -2.52339,0 v -1.58752 h -1.89242 v 1.58752 z m -2.5234,0 v -1.58752 h -1.89241 v 1.58752 z"
       sodipodi:nodetypes="ccccccccccccccc" />
    <path
       id="path7057"
       style="fill:#1c5356;fill-opacity:1;fill-rule:evenodd;stroke-width:0.990809;stroke-miterlimit:17.2;stroke-dasharray:1.98162, 1.98162;paint-order:fill markers stroke"
       d="m 202.47274,35.016739 h 1.58752 v -1.892416 h -1.58752 z m 0,-2.523392 h 1.58752 V 30.60093 h -1.58752 z m 0,-2.523395 h 1.58752 v -1.892417 h -1.58752 z"
       sodipodi:nodetypes="ccccccccccccccc" />
    <path
       id="path7141"
       style="fill:#1c5356;fill-opacity:1;fill-rule:evenodd;stroke-width:0.990809;stroke-miterlimit:17.2;stroke-dasharray:1.98162, 1.98162;paint-order:fill markers stroke"
       d="m 13.63488,7.2600153 v 1.5875202 h 1.892417 V 7.2600153 Z m 2.523392,0 V 8.8475355 H 18.05069 V 7.2600153 Z m 2.523396,0 v 1.5875202 h 1.892417 V 7.2600153 Z"
       sodipodi:nodetypes="ccccccccccccccc" />
  </g>
</svg>
