<?xml version="1.0" encoding="UTF-8" standalone="no"?>
<svg
   viewBox="0 0 64 64"
   version="1.1"
   id="svg26"
   sodipodi:docname="email.svg"
   width="64"
   height="64"
   inkscape:version="1.1.1 (3bf5ae0d25, 2021-09-20)"
   xmlns:inkscape="http://www.inkscape.org/namespaces/inkscape"
   xmlns:sodipodi="http://sodipodi.sourceforge.net/DTD/sodipodi-0.dtd"
   xmlns="http://www.w3.org/2000/svg"
   xmlns:svg="http://www.w3.org/2000/svg"
   xmlns:rdf="http://www.w3.org/1999/02/22-rdf-syntax-ns#"
   xmlns:cc="http://creativecommons.org/ns#"
   xmlns:dc="http://purl.org/dc/elements/1.1/">
  <sodipodi:namedview
     id="namedview17"
     pagecolor="#ffffff"
     bordercolor="#666666"
     borderopacity="1.0"
     inkscape:pageshadow="2"
     inkscape:pageopacity="0.0"
     inkscape:pagecheckerboard="0"
     showgrid="false"
     inkscape:snap-page="true"
     inkscape:zoom="7.3111111"
     inkscape:cx="45.068389"
     inkscape:cy="45"
     inkscape:window-width="1920"
     inkscape:window-height="1080"
     inkscape:window-x="0"
     inkscape:window-y="0"
     inkscape:window-maximized="0"
     inkscape:current-layer="email-flat" />
  <defs
     id="defs30" />
  <title
     id="title2">email</title>
  <g
     id="email-flat"
     style="display:inline"
     transform="scale(0.71111111)">
    <path
       id="label"
       style="display:inline;fill:#fabd2f;fill-opacity:1"
       d="M 90,0 V 90 H 0 V 0" />
    <g
       id="email"
       style="display:inline"
       transform="matrix(1.658282,0,0,1.658282,-29.622689,-29.622689)">
      <path
         id="rect8"
         style="fill:#3192b5"
         d="M 22,39.25 H 68 V 64.17 H 22 Z" />
      <path
         id="polygon10"
         style="fill:#3bafda"
         d="M 22,39.3 45,22 68,39.3 Z" />
      <path
         id="polygon12"
         style="fill:#ffffff"
         d="M 57.57,25.92 H 25.55 v 30.6 H 64.44 V 33.34 Z" />
      <path
         id="polygon14"
         style="fill:#e0e0e0"
         d="m 57.57,33.34 h 6.87 l -6.87,-7.42 z" />
      <path
         id="polygon16"
         style="fill:#3fbae8"
         d="M 68,68 45,52.67 68,39.25 Z" />
      <path
         id="polygon18"
         style="fill:#3fbae8"
         d="M 22,68 V 39.25 l 23,13.42 z" />
      <path
         id="polygon20"
         style="fill:#3bafda"
         d="M 22,68 45,52.67 68,68 Z" />
      <path
         d="m 45,31.59 a 7.66,7.66 0 1 0 5,13.5 l -1,-1.17 a 6.13,6.13 0 1 1 2.16,-4.67 v 1.15 a 1.15,1.15 0 0 1 -2.3,0 v -5 H 47.3 v 0.79 A 3.8,3.8 0 0 0 45,35.4 a 3.83,3.83 0 1 0 2.76,6.48 2.68,2.68 0 0 0 4.87,-1.11 v 0 -1.52 A 7.67,7.67 0 0 0 45,31.59 Z m 0,10 a 2.3,2.3 0 1 1 2.3,-2.3 2.3,2.3 0 0 1 -2.3,2.26 z"
         fill="#fc6e51"
         id="path22" />
    </g>
  </g>
  <metadata
     id="metadata849">
    <rdf:RDF>
      <cc:Work
         rdf:about="">
        <dc:title>email</dc:title>
      </cc:Work>
    </rdf:RDF>
  </metadata>
</svg>
