<?xml version="1.0" encoding="UTF-8" standalone="no"?>
<!-- Creator: CorelDRAW 2019 (64-Bit) -->

<svg
   xml:space="preserve"
   width="128"
   height="128"
   version="1.1"
   style="clip-rule:evenodd;fill-rule:evenodd;image-rendering:optimizeQuality;shape-rendering:geometricPrecision;text-rendering:geometricPrecision"
   viewBox="0 0 3386.6668 3386.6665"
   id="svg32"
   xmlns="http://www.w3.org/2000/svg"
   xmlns:svg="http://www.w3.org/2000/svg">
 <defs
   id="defs4">
  <style
   type="text/css"
   id="style2">
   <![CDATA[
    .fil0 {fill:#60B238;fill-rule:nonzero}
    .fil1 {fill:#373435;fill-rule:nonzero}
   ]]>
  </style>
 </defs>
 <g
   id="Слой_x0020_1">
  <metadata
   id="CorelCorpID_0Corel-Layer" />
  
  
  
  
  
  
  
  
  
  
  <polygon
   class="fil1"
   points="1246.41,1899.84 1246.41,2213.07 1559.64,2213.07 1559.64,1899.84 "
   id="polygon27"
   transform="matrix(4.1916283,0,0,4.1916283,-5214.3898,-5908.2542)" />
  <path
   class="fil0"
   d="m 2686.564,707.51673 c 0,448.30947 0,1529.53877 0,1977.84827 -125.2202,0 -147.2757,0 -268.9604,0 C 2301.475,1707.2161 1686.8647,1092.7741 708.54743,976.64551 c 0,-121.6846 0,-143.65601 0,-269.12878 448.35157,0 1529.66497,0 1978.01657,0 z M 11.481167,10.534628 V 1651.53 H 360.11955 c 917.45395,0 1382.64175,465.1036 1382.64175,1382.2629 v 348.6384 h 1640.869 V 10.534628 Z"
   id="path29"
   style="stroke-width:4.20908" />
 </g>
</svg>
