<?xml version="1.0" encoding="UTF-8" standalone="no"?>
<svg
   height="64"
   width="64"
   version="1.1"
   id="svg10"
   sodipodi:docname="telegram.svg"
   inkscape:version="1.1.1 (3bf5ae0d25, 2021-09-20)"
   xmlns:inkscape="http://www.inkscape.org/namespaces/inkscape"
   xmlns:sodipodi="http://sodipodi.sourceforge.net/DTD/sodipodi-0.dtd"
   xmlns="http://www.w3.org/2000/svg"
   xmlns:svg="http://www.w3.org/2000/svg">
  <sodipodi:namedview
     id="namedview8"
     pagecolor="#ffffff"
     bordercolor="#666666"
     borderopacity="1.0"
     inkscape:pageshadow="2"
     inkscape:pageopacity="0.0"
     inkscape:pagecheckerboard="0"
     showgrid="false"
     inkscape:snap-page="true"
     inkscape:zoom="1.2851562"
     inkscape:cx="255.61094"
     inkscape:cy="231.1003"
     inkscape:window-width="1920"
     inkscape:window-height="1080"
     inkscape:window-x="0"
     inkscape:window-y="0"
     inkscape:window-maximized="0"
     inkscape:current-layer="svg10" />
  <defs
     id="defs14" />
  <rect
     width="64"
     height="64"
     rx="0"
     fill="#37aee2"
     id="rect2"
     x="0"
     y="0"
     style="fill:#458588;fill-opacity:1;stroke-width:0.125" />
  <path
     fill="#c8daea"
     d="m 24.875,50.5 c -1.375,0 -1.25,-0.499999 -1.625,-1.749999 l -4,-13.125001 30.625,-18"
     id="path4"
     style="stroke-width:0.125" />
  <path
     fill="#a9c9dd"
     d="m 24.875,50.5 c 0.875,0 1.375,-0.499999 2,-1 L 32.5,44.124999 25.5,39.875"
     id="path6"
     style="stroke-width:0.125" />
  <path
     fill="#f6fbfe"
     d="M 25.5,39.875 42.375,52.250001 C 44.125,53.375 45.625,52.75 46.125,50.5 L 53,18.25 c 0.625,-2.75 -1.125,-4 -3,-3.125 L 9.875,30.624999 C 7.25,31.625002 7.25,33.250001 9.375,33.875002 L 19.75,37.125001 43.5,22 c 1.125,-0.625 2.125,-0.375 1.375,0.5"
     id="path8"
     style="stroke-width:0.125" />
</svg>
