<?xml version="1.0" encoding="UTF-8" standalone="no"?>
<svg
   height="512"
   width="512"
   version="1.1"
   id="svg10"
   xmlns="http://www.w3.org/2000/svg"
   xmlns:svg="http://www.w3.org/2000/svg">
  <defs
     id="defs14" />
  <rect
     width="512"
     height="512"
     rx="0"
     fill="#37aee2"
     id="rect2"
     x="0"
     y="0" />
  <path
     fill="#c8daea"
     d="M199 404c-11 0-10-4-13-14l-32-105 245-144"
     id="path4" />
  <path
     fill="#a9c9dd"
     d="M199 404c7 0 11-4 16-8l45-43-56-34"
     id="path6" />
  <path
     fill="#f6fbfe"
     d="M204 319l135 99c14 9 26 4 30-14l55-258c5-22-9-32-24-25L79 245c-21 8-21 21-4 26l83 26 190-121c9-5 17-3 11 4"
     id="path8" />
</svg>
